{"title":"San Andreas 2015 720p WEBRip XviD MP3 RARBG","uid":12291997,"size":3433774926,"categoryP":"video","categoryS":"movies","magnet":"?xt=urn:btih:a72292bd9f3223cf6ff97c37608eb37f77ca7ae4&amp;dn=San+Andreas+2015+720p+WEBRip+XviD+MP3+RARBG&amp;tr=udp%3A%2F%2Ftracker.openbittorrent.com%3A80&amp;tr=udp%3A%2F%2Fopen.demonii.com%3A1337&amp;tr=udp%3A%2F%2Ftracker.coppersurfer.tk%3A6969&amp;tr=udp%3A%2F%2Fexodus.desync.com%3A6969","seeders":1,"leechers":3,"uploader":"tip9034","files":5,"time":1440560569,"description":"Screenshot:\n\n &lt;a href=&quot;\nhttp://imagespicy.com/?p=550&quot; rel=&quot;nofollow&quot; target=&quot;_NEW&quot;&gt;\nhttp://imagespicy.com/?p=550&lt;/a&gt;\n\n\nDate created: 26.8.2015\n\nVideo\nID                                       : 0\nFormat                                   : MPEG-4 Visual\nFormat profile                           : Simple@L5\nFormat settings, BVOP                    : No\nFormat settings, QPel                    : No\nFormat settings, GMC                     : No warppoints\nFormat settings, Matrix                  : Default (H.263)\nCodec ID                                 : XVID\nCodec ID/Hint                            : XviD\nDuration                                 : 1h 54mn\nBit rate                                 : 3 797 Kbps\nWidth                                    : 1 280 pixels\nHeight                                   : 720 pixels\nDisplay aspect ratio                     : 2.40:1\nFrame rate                               : 23.976 fps\nColor space                              : YUV\nChroma subsampling                       : 4:2:0\nBit depth                                : 8 bits\nScan type                                : Progressive\nCompression mode                         : Lossy\nBits/(Pixel*Frame)                       : 0.172\nStream size                              : 3.03 GiB (95%)\nTitle                                    : English NTSC WEB-DL 720p x264\nWriting library                          : Lavc56.19.100\n\nAudio\nID                                       : 1\nFormat                                   : MPEG Audio\nFormat version                           : Version 1\nFormat profile                           : Layer 3\nMode                                     : Joint stereo\nCodec ID                                 : 55\nCodec ID/Hint                            : MP3\nDuration                                 : 1h 54mn\nBit rate mode                            : Constant\nBit rate                                 : 192 Kbps\nChannel(s)                               : 2 channels\nSampling rate                            : 48.0 KHz\nCompression mode                         : Lossy\nStream size                              : 157 MiB (5%)\nAlignment                                : Aligned on interleaves\nInterleave, duration                     : 24 ms (0.58 video frame)\nInterleave, preload duration             : 24 ms\nTitle                                    : English NTSC WEB-DL AAC 2.0\nWriting library                          : LAME3.99.5","torrent":{"xt":"urn:btih:a72292bd9f3223cf6ff97c37608eb37f77ca7ae4","amp;dn":"San+Andreas+2015+720p+WEBRip+XviD+MP3+RARBG","amp;tr":["udp%3A%2F%2Ftracker.openbittorrent.com%3A80","udp%3A%2F%2Fopen.demonii.com%3A1337","udp%3A%2F%2Ftracker.coppersurfer.tk%3A6969","udp%3A%2F%2Fexodus.desync.com%3A6969"],"infoHash":"a72292bd9f3223cf6ff97c37608eb37f77ca7ae4","infoHashBuffer":{"type":"Buffer","data":[167,34,146,189,159,50,35,207,111,249,124,55,96,142,179,127,119,202,122,228]},"announce":[],"urlList":[]}}